<?xml version="1.0" encoding="UTF-8"?>
<svg width="64px" height="64px" viewBox="0 0 64 64" version="1.1" xmlns="http://www.w3.org/2000/svg" xmlns:xlink="http://www.w3.org/1999/xlink">
    <!-- Generator: sketchtool 52.4 (67378) - http://www.bohemiancoding.com/sketch -->
    <title>DD150F53-3F70-4FEC-9021-DA18FF558701</title>
    <desc>Created with sketchtool.</desc>
    <g id="desktop" stroke="none" stroke-width="1" fill="none" fill-rule="evenodd">
        <g id="index_black_asset" transform="translate(-1206.000000, -1211.000000)" fill="#FFFFFF" fill-rule="nonzero">
            <g id="icon_facebook" transform="translate(1206.000000, 1211.000000)">
                <path d="M60.4666667,0 L3.53333333,0 C1.58333333,0 0,1.58333333 0,3.53333333 L0,60.4666667 C0,62.4166667 1.58333333,64 3.53333333,64 L32,64 L32,38.6666667 L24.35,38.6666667 L24.35,29.3333333 L32,29.3333333 L32,22.4333333 C32,14.1666667 37.7333333,9.66666667 45.1166667,9.66666667 C48.65,9.66666667 52.45,9.93333333 53.3333333,10.05 L53.3333333,18.6833333 L47.45,18.6833333 C43.4333333,18.6833333 42.6666667,20.5833333 42.6666667,23.3833333 L42.6666667,29.3333333 L52.2333333,29.3333333 L50.9833333,38.6666667 L42.6666667,38.6666667 L42.6666667,64 L60.4666667,64 C62.4166667,64 64,62.4166667 64,60.4666667 L64,3.53333333 C64,1.58333333 62.4166667,0 60.4666667,0 Z" id="Path"></path>
            </g>
        </g>
    </g>
</svg>