<?xml version="1.0" encoding="UTF-8"?>
<svg width="64px" height="64px" viewBox="0 0 64 64" version="1.1" xmlns="http://www.w3.org/2000/svg" xmlns:xlink="http://www.w3.org/1999/xlink">
    <!-- Generator: sketchtool 52.4 (67378) - http://www.bohemiancoding.com/sketch -->
    <title>B8ECB1D7-4446-4930-8A52-5EC55F638121</title>
    <desc>Created with sketchtool.</desc>
    <g id="desktop" stroke="none" stroke-width="1" fill="none" fill-rule="evenodd">
        <g id="index_black_asset" transform="translate(-1092.000000, -1210.000000)" fill="#FFFFFF" fill-rule="nonzero">
            <g id="icon_instargram" transform="translate(1092.000000, 1210.000000)">
                <path d="M45.3333333,5.33333333 C48.8666667,5.33333333 52.2166667,6.73333333 54.75,9.25 C57.2833333,11.7666667 58.6666667,15.1333333 58.6666667,18.6666667 L58.6666667,45.3333333 C58.6666667,48.8666667 57.2666667,52.2166667 54.75,54.75 C52.2333333,57.2833333 48.8666667,58.6666667 45.3333333,58.6666667 L18.6666667,58.6666667 C15.1333333,58.6666667 11.7833333,57.2666667 9.25,54.75 C6.71666667,52.2333333 5.33333333,48.8666667 5.33333333,45.3333333 L5.33333333,18.6666667 C5.33333333,15.1333333 6.73333333,11.7833333 9.25,9.25 C11.7666667,6.71666667 15.1333333,5.33333333 18.6666667,5.33333333 L45.3333333,5.33333333 Z M45.3333333,0 L18.6666667,0 C8.4,0 0,8.4 0,18.6666667 L0,45.3333333 C0,55.6 8.4,64 18.6666667,64 L45.3333333,64 C55.6,64 64,55.6 64,45.3333333 L64,18.6666667 C64,8.4 55.6,0 45.3333333,0 Z" id="Shape"></path>
                <path d="M49.3333333,18.6666667 C47.1166667,18.6666667 45.3333333,16.8833333 45.3333333,14.6666667 C45.3333333,12.45 47.1166667,10.6666667 49.3333333,10.6666667 C51.5333333,10.6666667 53.3333333,12.45 53.3333333,14.6666667 C53.3333333,16.8833333 51.5333333,18.6666667 49.3333333,18.6666667 Z M32,21.3333333 C37.8833333,21.3333333 42.6666667,26.1166667 42.6666667,32 C42.6666667,37.8833333 37.8833333,42.6666667 32,42.6666667 C26.1166667,42.6666667 21.3333333,37.8833333 21.3333333,32 C21.3333333,26.1166667 26.1166667,21.3333333 32,21.3333333 Z M32,16 C23.1666667,16 16,23.1666667 16,32 C16,40.8333333 23.1666667,48 32,48 C40.8333333,48 48,40.8333333 48,32 C48,23.1666667 40.8333333,16 32,16 Z" id="Shape"></path>
            </g>
        </g>
    </g>
</svg>