<?xml version="1.0" encoding="UTF-8"?>
<svg width="64px" height="64px" viewBox="0 0 64 64" version="1.1" xmlns="http://www.w3.org/2000/svg" xmlns:xlink="http://www.w3.org/1999/xlink">
    <!-- Generator: sketchtool 52.4 (67378) - http://www.bohemiancoding.com/sketch -->
    <title>55410532-FE90-4D40-9050-8BDABB8C1B3E</title>
    <desc>Created with sketchtool.</desc>
    <g id="desktop" stroke="none" stroke-width="1" fill="none" fill-rule="evenodd">
        <g id="index_black_asset" transform="translate(-978.000000, -1210.000000)" fill="#FFFFFF" fill-rule="nonzero">
            <g id="_ionicons_svg_logo-twitter" transform="translate(978.000000, 1210.000000)">
                <path d="M60.6473684,12.9571311 C58.4117476,13.9464576 56.021946,14.6145742 53.5036605,14.9229357 C56.0733396,13.3811282 58.0519925,10.939933 58.977077,8.0361956 C56.574427,9.46236751 53.9148091,10.5030876 51.0753137,11.0555686 C48.8011477,8.62722179 45.563352,7.11111111 41.991498,7.11111111 C35.1176063,7.11111111 29.554251,12.6873148 29.554251,19.5612065 C29.554251,20.5376845 29.6570382,21.4884658 29.8754609,22.4007019 C19.5325024,21.8867661 10.358748,16.9272854 4.23006324,9.38527714 C3.1636464,11.2225977 2.54692341,13.3682798 2.54692341,15.6424458 C2.54692341,19.9595067 4.75684746,23.7754802 8.09743032,26.0111011 C6.04168702,25.9597075 4.11442768,25.3943781 2.44413625,24.4564452 L2.44413625,24.610626 C2.44413625,30.6493719 6.73550038,35.6730946 12.4273396,36.8166018 C11.3866196,37.0992665 10.2816576,37.2534472 9.15099876,37.2534472 C8.35439823,37.2534472 7.5706461,37.1763569 6.81259076,37.0221761 C8.39294342,41.9688084 12.9926691,45.5663592 18.4403888,45.6691464 C14.1875698,49.0097292 8.81694048,51.0012306 2.98376886,51.0012306 C1.981594,51.0012306 0.992267541,50.9369886 0.0157894737,50.821353 C5.5020544,54.393207 12.0418878,56.4489503 19.0571118,56.4489503 C41.9658012,56.4489503 54.4801385,37.47187 54.4801385,21.0130752 C54.4801385,20.4734426 54.4672901,19.9338099 54.4415933,19.4070257 C56.8699401,17.6467955 58.977077,15.4625683 60.6473684,12.9571311 Z" id="Path"></path>
            </g>
        </g>
    </g>
</svg>