<?xml version="1.0" encoding="UTF-8"?>
<svg width="64px" height="64px" viewBox="0 0 64 64" version="1.1" xmlns="http://www.w3.org/2000/svg" xmlns:xlink="http://www.w3.org/1999/xlink">
    <!-- Generator: sketchtool 52.4 (67378) - http://www.bohemiancoding.com/sketch -->
    <title>CEAD18B1-F892-4376-80D5-A01B4A439804</title>
    <desc>Created with sketchtool.</desc>
    <g id="desktop" stroke="none" stroke-width="1" fill="none" fill-rule="evenodd">
        <g id="index_black_asset" transform="translate(-978.000000, -1329.000000)" fill="#FFFFFF" fill-rule="nonzero">
            <g id="_ionicons_svg_logo-twitter" transform="translate(978.000000, 1329.000000)">
                <g id="Group-12" transform="translate(3.000000, 8.000000)">
                    <path d="M0.240387143,31.3450267 C-0.503536953,27.195142 2.9436627,20.498505 9.12652512,14.8033448 C16.6854555,7.84066055 25.47085,5.01146736 28.7492531,8.48416498 C30.3685674,10.199448 30.3414563,13.1313763 28.9884135,16.4986274 C34.6647859,13.1161924 40.0365983,12.2707135 42.4425248,14.8192273 C43.9279914,16.39273 44.0279612,18.9900618 42.9898428,22.0080723 C47.4851715,23.9989262 50.4748936,27.070014 50.9378262,30.7942275 C51.8936583,38.4837312 41.7155323,46.0457292 28.2043457,47.6844227 C16.3904511,49.1172616 5.93999639,45.5470814 2.86185978,39.487087 C1.10966126,37.99334 -1.42108547e-14,35.7795597 -1.42108547e-14,33.3088402 C-1.42108547e-14,32.6317633 0.0833335072,31.9739819 0.240387143,31.3450267 Z M24.0774518,44.1413901 C33.8848638,43.4639691 41.477667,37.86232 41.0364523,31.6297566 C40.5952376,25.3971932 32.2870842,20.8938605 22.4796722,21.5712815 C12.6722601,22.2487025 5.07945699,27.8503516 5.52067166,34.082915 C5.96188632,40.3154784 14.2700398,44.818811 24.0774518,44.1413901 Z" id="Combined-Shape"></path>
                    <path d="M24.7746848,41.561643 C19.6818659,43.0457098 14.5349094,40.6394632 13.2786357,36.1871407 C12.022362,31.7348182 15.1324964,26.9224238 20.2253152,25.438357 C25.3181341,23.9542902 30.4650906,26.3605368 31.7213643,30.8128593 C32.977638,35.2651818 29.8675036,40.0775762 24.7746848,41.561643 Z M21.3760389,37.6252848 C22.8047782,36.5703811 23.2390937,34.7026541 22.3461099,33.4535996 C21.453126,32.2045452 19.5709975,32.0471549 18.1422582,33.1020586 C16.7135189,34.1569623 16.2792033,36.0246894 17.1721872,37.2737438 C18.0651711,38.5227982 19.9472996,38.6801885 21.3760389,37.6252848 Z M24.328695,31.6383714 C24.5348273,31.4861744 24.7012767,31.3618797 24.70047,31.3607513 C24.6996633,31.3596229 24.531906,31.4820882 24.3257736,31.6342852 C24.1196413,31.7864822 23.9531919,31.9107769 23.9539986,31.9119053 C23.9548053,31.9130337 24.1225626,31.7905684 24.328695,31.6383714 Z" id="Combined-Shape"></path>
                    <path d="M39.2296766,1.16709674 L39.0989604,0.666252259 C40.4741347,0.233344244 41.9372078,0 43.4545455,0 C51.4877782,0 58,6.54053583 58,14.6086957 C58,16.1709019 57.7558499,17.6758358 57.3037821,19.0871076 L57.0658539,19.0574867 C56.9023429,20.156832 55.9583023,21 54.8181818,21 C53.5629892,21 52.5454545,19.9780413 52.5454545,18.7173913 C52.5454545,18.1362391 52.7616965,17.6058125 53.1177771,17.202847 C53.3374514,16.3753155 53.4545455,15.5057394 53.4545455,14.6086957 C53.4545455,9.06183577 48.977393,4.56521739 43.4545455,4.56521739 C42.9633758,4.56521739 42.4804769,4.6007824 42.0082624,4.66948822 C41.5913677,5.16418796 40.9685665,5.47826087 40.2727273,5.47826087 C39.0175347,5.47826087 38,4.45630215 38,3.19565217 C38,2.3126336 38.4992291,1.54672318 39.2296766,1.16709674 Z" id="Oval-9"></path>
                    <path d="M42.8739866,7.02518245 C43.0804,7.00850474 43.2891842,7 43.5,7 C47.6421356,7 51,10.2832452 51,14.3333333 C51,14.7517259 50.9641654,15.1619348 50.8953336,15.5611859 C50.9631377,15.7507353 51,15.9544918 51,16.1666667 C51,17.1791887 50.1605339,18 49.125,18 C48.0894661,18 47.25,17.1791887 47.25,16.1666667 C47.25,15.8606331 47.3266889,15.5721132 47.4623012,15.3184774 L47.1349603,15.2381344 C47.2100808,14.9487257 47.25,14.6455877 47.25,14.3333333 C47.25,12.3082893 45.5710678,10.6666667 43.5,10.6666667 C43.3355589,10.6666667 43.1735899,10.6770158 43.0147372,10.6970844 L43.0049828,10.6153203 C42.8631047,10.6488824 42.7149264,10.6666667 42.5625,10.6666667 C41.5269661,10.6666667 40.6875,9.84585537 40.6875,8.83333333 C40.6875,7.82081129 41.5269661,7 42.5625,7 C42.6686187,7 42.7726784,7.00861983 42.8739866,7.02518245 Z M36.118525,15.6390032 C36.040651,15.2152981 36,14.7789575 36,14.3333333 C36,13.8877092 36.040651,13.4513686 36.118525,13.0276635 L36.118525,15.6390032 Z" id="Oval-10"></path>
                </g>
            </g>
        </g>
    </g>
</svg>