<?xml version="1.0" encoding="UTF-8"?>
<svg width="128px" height="128px" viewBox="0 0 128 128" version="1.1" xmlns="http://www.w3.org/2000/svg" xmlns:xlink="http://www.w3.org/1999/xlink">
    <!-- Generator: sketchtool 52.4 (67378) - http://www.bohemiancoding.com/sketch -->
    <title>894B997C-BD5F-4011-8D6A-1D241692DA40</title>
    <desc>Created with sketchtool.</desc>
    <g id="desktop" stroke="none" stroke-width="1" fill="none" fill-rule="evenodd">
        <g id="index_black_asset" transform="translate(-978.000000, -1482.000000)" fill="#FFFFFF">
            <g id="Group-7" transform="translate(978.000000, 1482.000000)">
                <g id="ic_alerts">
                    <path d="M52.2015229,85.3333333 L42.6666667,85.3333333 L42.6666667,101.333333 C42.6666667,104.278852 40.278852,106.666667 37.3333333,106.666667 C34.3878147,106.666667 32,104.278852 32,101.333333 L32,85.3333333 C20.2179253,85.3333333 10.6666667,75.7820747 10.6666667,64 C10.6666667,52.2179253 20.2179253,42.6666667 32,42.6666667 L52.2015229,42.6666667 L99.1672615,21.7930051 C102.694128,20.225509 106.666667,22.8071552 106.666667,26.6666667 L106.666667,43.3387599 C115.867878,45.7069882 122.666667,54.059523 122.666667,64 C122.666667,73.940477 115.867878,82.2930118 106.666667,84.6612401 L106.666667,101.333333 C106.666667,105.192845 102.694128,107.774491 99.1672615,106.206995 L52.2015229,85.3333333 Z M58.6666667,76.5340102 L96,93.1266028 L96,80 L96,48 L96,34.8733972 L58.6666667,51.4659898 L58.6666667,76.5340102 Z M48,74.6666667 L48,53.3333333 L32.0000009,53.3333333 C26.1089627,53.3333333 21.3333333,58.1089627 21.3333333,64 C21.3333333,69.8910373 26.1089627,74.6666667 32,74.6666667 L48,74.6666667 Z M106.666667,73.2396566 C109.854941,71.3953397 112,67.9481726 112,64 C112,60.0518274 109.854941,56.6046603 106.666667,54.7603434 L106.666667,73.2396566 Z" id="Combined-Shape"></path>
                </g>
            </g>
        </g>
    </g>
</svg>