<?xml version="1.0" encoding="UTF-8"?>
<svg width="128px" height="128px" viewBox="0 0 128 128" version="1.1" xmlns="http://www.w3.org/2000/svg" xmlns:xlink="http://www.w3.org/1999/xlink">
    <!-- Generator: sketchtool 52.4 (67378) - http://www.bohemiancoding.com/sketch -->
    <title>76553D8A-4206-4BEF-AB29-2461E1F67B84</title>
    <desc>Created with sketchtool.</desc>
    <g id="desktop" stroke="none" stroke-width="1" fill="none" fill-rule="evenodd">
        <g id="index_black_asset" transform="translate(-1131.000000, -1482.000000)" fill="#FFFFFF" fill-rule="nonzero">
            <g id="Group-8" transform="translate(1128.000000, 1482.000000)">
                <g id="icon_language" transform="translate(3.000000, 1.000000)">
                    <path d="M86.8798781,92.5320272 C86.9622742,91.5841344 87.2703474,90.4578947 87.8320032,89.3450843 C89.2248603,86.585412 86.8543246,86.2297569 89.2070032,83.4775248 C90.9211595,81.4722546 93.7578523,82.455017 95.1713585,83.1361714 C97.9501129,78.6194294 99.7746544,73.4527918 100.364108,67.9171341 C98.8288434,68.4058999 96.9951113,68.2032124 96.3861607,67.3043155 C95.3337061,65.7507442 94.9561004,59.1956844 92.843378,58.6655506 C90.7306555,58.1354168 90.4769338,57.315104 90.0342262,58.2764137 C89.5915186,59.2377234 89.5457582,60.4494046 88.6011905,62.2247024 C87.6566228,64.0000002 87.656622,63.3679315 87.656622,63.3679315 C87.656622,63.3679315 84.4873504,66.2726933 83.2566964,63.6000744 C82.0260424,60.9274555 79.5132101,55.1452429 78.0855648,53.4531252 C76.6579195,51.7610074 74.2252604,50.921875 72.9655878,51.4025298 C71.7059152,51.8831845 70.0313454,52.9501183 66.8154755,52.325893 C63.5996057,51.7016677 62.9869792,49.2328871 61.3524926,49.6616445 C60.752102,49.8191386 59.0862328,50.694858 58.4311756,51.1164436 C57.3029235,51.8425708 56.0446517,51.4412484 54.9358259,51.2721354 C53.1832217,51.0048363 53.5085565,47.6901041 54.8426339,47.0665923 C56.1767113,46.4430804 57.7304687,46.6006324 57.7304688,45.6497396 C57.7304688,44.6988467 56.5267857,43.9676339 55.4888393,43.9676339 C54.4508929,43.9676339 52.8208705,42.9920015 54.842634,41.6391369 C56.8643974,40.2862723 57.5957961,39.546875 58.0701265,39.8575149 C58.5444569,40.1681548 59.9743304,42.3867188 60.2433036,43.5221355 C60.5122768,44.6575522 63.3169642,44.3173363 62.8965774,42.6599702 C62.4761905,41.0026042 63.2942715,37.2615326 65.577381,36.1383929 C67.8604904,35.0152531 72.7749263,33.4285714 74.3820685,34.7834821 C75.9892106,36.1383929 74.9787953,37.8493304 76.1551339,37.8493304 C77.3314725,37.8493303 80.9534963,36.2165179 82.0260417,35.5 C82.5230687,35.1679592 83.4821067,34.3135093 84.6341517,33.8013809 C78.7609265,29.7805831 71.6551341,27.4285714 64,27.4285714 C57.1945409,27.4285714 50.8232438,29.2874402 45.3661493,32.5251371 L46.530506,35.0907738 C46.530506,35.0907738 48.1377587,37.6421662 46.530506,41.0959821 C44.9232532,44.5497981 43.0822173,44.1376488 41.265997,46.4036458 C39.4497768,48.6696429 36.8616071,47.593006 36.0245536,47.593006 C35.1875,47.593006 31.90625,49.7157738 31.90625,49.7157738 L30.2668275,49.8494714 C28.4387612,54.2021629 27.4285714,58.9831102 27.4285714,64 C27.4285714,64.4244321 27.4358016,64.8471755 27.4501456,65.2681137 C29.0587901,66.107928 33.5638124,68.5296254 34.6815476,69.8772321 C36.0491071,71.5260417 36.4724702,75.1636905 38.4441964,75.1636905 C40.4159226,75.1636905 42.9761905,76.2909226 42.9761905,77.9315476 C42.9761905,79.5721726 41.3854167,81.2708333 42.1808036,82.9613095 C42.9761905,84.6517857 43.5394345,86.6488095 43.5394345,87.9412202 C43.5394345,89.233631 41.9895833,88.7284226 43.828869,91.014881 C45.6681548,93.3013393 50.0495965,96.4222032 50.2101935,97.702381 C50.2184776,97.768417 50.2108636,97.8252804 50.1889695,97.8737417 C54.4502919,99.6129543 59.1132141,100.571429 64,100.571429 C72.6591275,100.571429 80.6153683,97.5620133 86.8798781,92.5320272 Z M64,106.666667 C40.4358507,106.666667 21.3333333,87.5641493 21.3333333,64 C21.3333333,40.4358507 40.4358507,21.3333333 64,21.3333333 C87.5641493,21.3333333 106.666667,40.4358507 106.666667,64 C106.666667,87.5641493 87.5641493,106.666667 64,106.666667 Z M74.1352309,55.6996652 C76.6625922,56.5182345 78.9021579,58.3713542 78.9021577,59.5934524 C78.9021576,60.8155506 80.3232889,66.5502976 81.1767113,67.743378 C82.0301337,68.9364583 83.9899555,70.9297619 81.5167411,74.0994048 C79.0435266,77.2690476 79.3746282,79.1377232 78.7779018,82.211756 C78.1811754,85.2857887 74.9371282,88.3605655 73.5907738,89.930506 C72.2444195,91.5004464 68.1547621,92.1098214 66.8493305,91.3144345 C65.543899,90.5190476 65.2418157,87.883631 64.6331845,86.9639881 C64.0245534,86.0443452 62.685268,82.5971726 63.8043157,79.7463542 C64.9233633,76.8955357 62.263021,74.525744 61.6499256,72.5082589 C61.0368302,70.4907738 55.6850021,72.4420387 52.124628,72.4420387 C48.5642538,72.4420387 48.5115327,69.3921875 47.9233631,65.5205357 C47.4802989,62.6040462 47.9233631,59.5934524 49.9200148,57.4189732 C52.6446147,54.4517127 55.8259991,52.6459078 59.6488097,52.6459077 C63.4716203,52.6459077 65.3541669,56.5819196 67.7615329,55.9851935 C70.168899,55.3884673 71.6078696,54.8810958 74.1352309,55.6996652 Z" id="Earth-Copy"></path>
                </g>
            </g>
        </g>
    </g>
</svg>