<?xml version="1.0" encoding="UTF-8"?>
<svg width="128px" height="128px" viewBox="0 0 128 128" version="1.1" xmlns="http://www.w3.org/2000/svg" xmlns:xlink="http://www.w3.org/1999/xlink">
    <!-- Generator: sketchtool 52.4 (67378) - http://www.bohemiancoding.com/sketch -->
    <title>CA3D01F5-C5C4-4F0D-BC4F-287EFAAB2EBB</title>
    <desc>Created with sketchtool.</desc>
    <g id="desktop" stroke="none" stroke-width="1" fill="none" fill-rule="evenodd">
        <g id="index_black_asset" transform="translate(-1308.000000, -1482.000000)" fill="#FFFFFF">
            <g id="Group-9" transform="translate(1308.000000, 1482.000000)">
                <g id="icon_notification">
                    <path d="M93.8666667,85.3218668 L34.1333333,85.3218668 C30.0130909,85.3218668 26.6666667,84.572728 26.6666667,80.2915977 C26.6666667,75.1152564 30.9459635,74.4194497 34.1333333,67.2329946 C35.3534722,61.1906009 36.3122424,55.338557 36.6244848,47.0145381 C37.2150303,31.305028 48.8833939,21.3333333 64,21.3333333 C79.1166061,21.3333333 90.7849697,31.2761502 91.3687273,47.0073186 C91.6945455,55.3313375 92.678125,61.0561035 93.8666667,67.2907501 C96.3578182,75.3693079 101.333333,75.5700814 101.333333,80.2915977 C101.333333,84.6088252 97.9869091,85.3218668 93.8666667,85.3218668 Z M50.6666667,93.3333333 L77.3333333,93.3333333 C77.3333333,101.192901 73.1959635,106.666667 64,106.666667 C54.8040365,106.666667 50.6666667,101.192901 50.6666667,93.3333333 Z" id="Combined-Shape"></path>
                </g>
            </g>
        </g>
    </g>
</svg>