<?xml version="1.0" encoding="UTF-8"?>
<svg width="64px" height="64px" viewBox="0 0 64 64" version="1.1" xmlns="http://www.w3.org/2000/svg" xmlns:xlink="http://www.w3.org/1999/xlink">
    <!-- Generator: sketchtool 52.5 (67469) - http://www.bohemiancoding.com/sketch -->
    <title>C7D3D53C-1866-44FC-9A8D-889A93E96474</title>
    <desc>Created with sketchtool.</desc>

    <g id="desktop" stroke="none" stroke-width="1" fill="none" fill-rule="evenodd">
        <g id="index_black_asset" transform="translate(-1092.000000, -1329.000000)">
            <g id="_ionicons_svg_logo-twitter" transform="translate(1092.000000, 1329.000000)">
                <g id="setting">
                    <g id="Group-3" transform="translate(8.000000, 8.000000)">
                        <path d="M24.1125,33.9786514 C18.575,33.9786514 14.1125,29.4924447 14.1125,23.9812549 C14.1125,18.4701901 18.575,13.9838584 24.1125,13.9838584 C29.65,13.9838584 34.1125,18.4701901 34.1125,23.9812549 C34.1125,29.4924447 29.65,33.9786514 24.1125,33.9786514 M44.0375,23.9937516 C44.0375,21.369435 45.675,19.1325176 48,18.2327519 C47.3875,15.670919 46.375,13.2715439 45.0375,11.0971101 C44.2375,11.447019 43.3875,11.6344702 42.525,11.6344702 C40.95,11.6344702 39.375,11.0346264 38.1625,9.83493882 C36.3,7.97292372 35.8875,5.23613642 36.8875,2.96172872 C34.725,1.62457693 32.3125,0.612340536 29.7625,0 C28.875,2.31189794 26.625,3.96146837 24,3.96146837 C21.375,3.96146837 19.125,2.31189794 18.2375,0 C15.675,0.612340536 13.275,1.62457693 11.1,2.96172872 C12.1125,5.22363968 11.6875,7.97292372 9.825,9.83493882 C8.625,11.0346264 7.0375,11.6344702 5.4625,11.6344702 C4.6,11.6344702 3.75,11.4595158 2.95,11.0971101 C1.625,13.2840406 0.6125,15.6834158 0,18.2452486 C2.3125,19.1325176 3.9625,21.369435 3.9625,24.0062484 C3.9625,26.630565 2.325,28.8676074 0.0125,29.7672481 C0.625,32.329081 1.6375,34.7284561 2.975,36.9028899 C3.775,36.553106 4.625,36.3780266 5.475,36.3780266 C7.05,36.3780266 8.625,36.9778703 9.8375,38.1776829 C11.6875,40.0270763 12.1125,42.7763603 11.1125,45.0382713 C13.2875,46.3754231 15.7,47.3876595 18.25,48 C19.1375,45.6881021 21.375,44.0511533 24,44.0511533 C26.625,44.0511533 28.8625,45.6881021 29.75,48 C32.3125,47.3876595 34.7125,46.3754231 36.8875,45.0382713 C35.8875,42.7763603 36.3125,40.039573 38.1625,38.1776829 C39.3625,36.9778703 40.9375,36.3780266 42.525,36.3780266 C43.375,36.3780266 44.2375,36.553106 45.025,36.9028899 C46.3625,34.7284561 47.375,32.3165842 47.9875,29.7672481 C45.6875,28.8676074 44.0375,26.630565 44.0375,23.9937516" id="Fill-1" fill="#FFFFFF" fill-rule="nonzero" ></path>
                    </g>
                </g>
            </g>
        </g>
    </g>
</svg>