<?xml version="1.0" encoding="UTF-8"?>
<svg width="128px" height="128px" viewBox="0 0 128 128" version="1.1" xmlns="http://www.w3.org/2000/svg" xmlns:xlink="http://www.w3.org/1999/xlink">
    <!-- Generator: sketchtool 52.2 (67145) - http://www.bohemiancoding.com/sketch -->
    <title>A5D236BA-8175-4530-AE55-9C233BC3D010</title>
    <desc>Created with sketchtool.</desc>
    <g id="desktop" stroke="none" stroke-width="1" fill="none" fill-rule="evenodd">
        <g id="index_black_asset" transform="translate(-1512.000000, -1196.000000)" fill="#FFFFFF" fill-rule="nonzero">
            <g id="_ionicons_svg_logo-twitch" transform="translate(1512.000000, 1196.000000)">
                <path d="M20,8 L116,8 L116,76 L88,104 L68,104 L52,120 L36,120 L36,104 L12,104 L12,28 L20,8 Z M104,72 L104,20 L28,20 L28,88 L48,88 L48,104 L63.99975,88 L88,88 L104,72 Z M80,35.75 L92,35.75 L92,68 L80,68 L80,35.75 Z M52,35.75 L64,35.75 L64,68 L52,68 L52,35.75 Z" id="Combined-Shape"></path>
            </g>
        </g>
    </g>
</svg>