<?xml version="1.0" encoding="UTF-8"?>
<svg width="128px" height="128px" viewBox="0 0 128 128" version="1.1" xmlns="http://www.w3.org/2000/svg" xmlns:xlink="http://www.w3.org/1999/xlink">
    <!-- Generator: sketchtool 52.2 (67145) - http://www.bohemiancoding.com/sketch -->
    <title>71909107-06D7-48FF-84D3-9072B161B1E6</title>
    <desc>Created with sketchtool.</desc>
    <g id="desktop" stroke="none" stroke-width="1" fill="none" fill-rule="evenodd">
        <g id="index_black_asset" transform="translate(-1334.000000, -1196.000000)" fill="#FFFFFF" fill-rule="nonzero">
            <g id="_ionicons_svg_logo-playstation" transform="translate(1334.000000, 1196.000000)">
                <path d="M99.9374762,50.75 C100.037476,53.55 100.012476,56.375 99.5374762,59.075 C99.1124762,61.45 98.3374762,63.825 97.0624762,65.9 C95.9374762,67.75 94.3624762,69.325 92.4624762,70.35 C90.6374762,71.35 88.5374762,71.825 86.4624762,71.775 C83.3124762,71.825 78.7624762,70.825 76.0124762,69.5 L76.0124762,36.175 C76.0124762,33.85 74.2624762,31.975 72.1374762,31.975 L72.0124762,31.975 C69.8624762,31.975 67.9874762,33.85 67.9874762,36.175 L67.9874762,37.125 C67.9874762,62.3 67.9624762,112 67.9624762,112 L47.9874762,105.575 L47.9874762,16 C47.9874762,16 54.9624762,17.1 66.6874762,20.6 C78.4124762,24.1 83.5124762,25.8 87.7874762,28.35 C89.7124762,29.5 91.5374762,30.825 93.1124762,32.425 C94.8124762,34.1 96.2124762,36.075 97.2374762,38.225 C99.1124762,42.125 99.7374762,46.475 99.9374762,50.75 Z M21.6624762,89.45 C20.7124762,89.825 19.7124762,90.225 19.0124762,90.95 C18.6624762,91.3 18.3874762,91.8 18.5874762,92.3 C18.8124762,92.9 19.4124762,93.2 19.9624762,93.45 C21.4874762,94.05 23.1624762,94.15 24.7874762,94.225 C26.5874762,94.2 28.4124762,94.075 30.1874762,93.675 C31.3874762,93.425 32.5374762,92.975 33.6874762,92.6 C41.2624762,90.1 44.0124762,89.475 44.0124762,89.475 L44.0124762,99.975 C40.5124762,100.6 35.1374762,101.025 31.5124762,101.075 C24.0124762,101.25 16.5124762,100.1 9.41247625,97.75 C7.08747625,97.075 4.76247625,96.175 2.81247625,94.7 C1.73747625,93.875 0.787476245,92.825 0.287476245,91.55 C-0.137523755,90.45 -0.0875237549,89.2 0.412476245,88.15 C0.912476245,87.1 1.76247625,86.275 2.71247625,85.625 C4.88747625,84.1 7.28747625,82.95 9.73747625,81.925 C11.8374762,81.025 14.0124762,80.325 16.1624762,79.55 C24.8624762,76.475 43.9874762,70.275 43.9874762,70.275 L43.9874762,82.075 C43.9874762,82.075 28.5124762,87 21.6624762,89.45 Z M127.987476,86.475 C127.987476,87.75 127.512476,88.85 126.737476,89.75 C125.237476,91.425 123.262476,92.575 121.287476,93.575 C119.162476,94.65 116.912476,95.35 114.687476,96.175 C101.287476,100.975 71.9874762,110.875 71.9874762,110.875 L71.9874762,99.125 C71.9874762,99.125 94.9124762,91.575 105.162476,87.95 C106.537476,87.425 108.037476,87.05 109.212476,86.1 C109.712476,85.725 110.162476,85.125 109.937476,84.475 C109.687476,83.9 109.112476,83.575 108.562476,83.35 C107.012476,82.75 105.337476,82.625 103.712476,82.575 C101.162476,82.575 98.5624762,82.9 96.1374762,83.725 C88.8874762,86.275 72.0124762,91.675 72.0124762,91.675 L72.0124762,79.475 C72.0124762,79.475 83.3624762,76.25 88.8374762,75.625 C90.8124762,75.4 94.5874762,75.35 96.5874762,75.275 C103.187476,75.3 109.862476,76.05 116.162476,78.1 C117.512476,78.525 118.462476,78.875 119.837476,79.35 C122.037476,80.15 124.237476,81.15 126.012476,82.725 C127.062476,83.675 127.962476,84.975 127.987476,86.475 Z" id="Combined-Shape"></path>
            </g>
        </g>
    </g>
</svg>