<?xml version="1.0" encoding="UTF-8"?>
<svg width="128px" height="128px" viewBox="0 0 128 128" version="1.1" xmlns="http://www.w3.org/2000/svg" xmlns:xlink="http://www.w3.org/1999/xlink">
    <!-- Generator: sketchtool 52.2 (67145) - http://www.bohemiancoding.com/sketch -->
    <title>45E1C42C-AEA8-41BC-ABD5-D33618C925B5</title>
    <desc>Created with sketchtool.</desc>
    <g id="desktop" stroke="none" stroke-width="1" fill="none" fill-rule="evenodd">
        <g id="index_black_asset" transform="translate(-1156.000000, -1196.000000)" fill="#FFFFFF" fill-rule="nonzero">
            <g id="_ionicons_svg_logo-xbox" transform="translate(1156.000000, 1196.000000)">
                <path d="M31.7,62.075 C41.625,47.425 51.175,38.875 51.175,38.875 C51.175,38.875 40.65,26.65 27.975,22.025 L27.15,21.825 C15.425,32.1 8,47.175 8,64 C8,76.675 12.225,88.375 19.3,97.75 C19.3,96.65 19.45,80.175 31.7,62.075 Z M120,64 C120,47.175 112.575,32.1 100.85,21.825 L100.05,22.05 C87.375,26.675 76.825,38.9 76.825,38.9 C76.825,38.9 86.375,47.45 96.3,62.1 C108.55,80.2 108.7,96.675 108.675,97.775 C115.8,88.375 120,76.675 120,64 Z M50.3,20.225 C57.625,23.5 63.95,28.875 63.95,28.875 C63.95,28.875 70.325,23.525 77.65,20.225 C86.85,16.1 93.875,17.4 95.725,17.85 C86.7,11.65 75.775,8 64,8 C52.225,8 41.3,11.65 32.275,17.85 C34.075,17.4 41.075,16.075 50.3,20.225 Z M89.675,73.225 C78.1,59 63.95,49.75 63.95,49.75 C63.95,49.75 49.875,59 38.275,73.225 C28.325,85.45 24.625,94.425 22.625,100.175 L22.3,101.375 C32.55,112.8 47.425,120 64,120 C80.575,120 95.45,112.8 105.7,101.375 L105.35,100.175 C103.35,94.425 99.625,85.45 89.675,73.225 Z" id="Shape"></path>
            </g>
        </g>
    </g>
</svg>