<?xml version="1.0" encoding="UTF-8"?>
<svg width="10px" height="10px" viewBox="0 0 10 10" version="1.1" xmlns="http://www.w3.org/2000/svg" xmlns:xlink="http://www.w3.org/1999/xlink">
    <!-- Generator: sketchtool 52.2 (67145) - http://www.bohemiancoding.com/sketch -->
    <title>1890F62E-E643-41E3-8635-28BF6E1888DE</title>
    <desc>Created with sketchtool.</desc>
    <g id="desktop" stroke="none" stroke-width="1" fill="none" fill-rule="evenodd">
        <g id="profile_white" transform="translate(-1158.000000, -272.000000)" fill="#31313C" fill-rule="nonzero">
            <g id="profile_header" transform="translate(250.000000, 176.000000)">
                <g id="btn" transform="translate(900.000000, 88.000000)">
                    <g id="_ionicons_svg_md-refresh-circle" transform="translate(8.000000, 8.000000)">
                        <path d="M9.69230769,4.24038462 L5.45192308,4.24038462 L7.39038462,2.30192308 C6.75432692,1.63557692 5.84567308,1.21153846 4.84615385,1.21153846 C2.84711538,1.21153846 1.21153846,2.84711538 1.21153846,4.84615385 C1.21153846,6.84519231 2.84711538,8.48076923 4.84615385,8.48076923 C6.35625,8.48076923 7.67163462,7.56346154 8.20384615,6.23076923 L9.49326923,6.23076923 C8.89182692,8.23413462 7.05721154,9.69230769 4.84615385,9.69230769 C2.15048077,9.69230769 0,7.51153846 0,4.84615385 C0,2.18076923 2.18076923,-5.68434189e-14 4.84615385,-5.68434189e-14 C6.17884615,-5.68434189e-14 7.39038462,0.545192308 8.26875,1.42355769 L9.69230769,-5.68434189e-14 L9.69230769,4.24038462 Z" id="Shape"></path>
                    </g>
                </g>
            </g>
        </g>
    </g>
</svg>