<?xml version="1.0" encoding="UTF-8"?>
<svg width="128px" height="128px" viewBox="0 0 128 128" version="1.1" xmlns="http://www.w3.org/2000/svg" xmlns:xlink="http://www.w3.org/1999/xlink">
    <!-- Generator: sketchtool 52.2 (67145) - http://www.bohemiancoding.com/sketch -->
    <title>2C82D210-C843-47D2-9138-DD9CCEA55F5E</title>
    <desc>Created with sketchtool.</desc>
    <g id="desktop" stroke="none" stroke-width="1" fill="none" fill-rule="evenodd">
        <g id="profile_asset" transform="translate(-1011.000000, -726.000000)" fill="#FFFFFF" fill-rule="nonzero">
            <g id="_ionicons_svg_md-person-add" transform="translate(1011.000000, 726.000000)">
                <g id="_ionicons_svg_md-people" transform="translate(14.000000, 33.000000)">
                    <path d="M67.8786667,26.6666667 C75.3451111,26.6666667 81.4546667,20.6662222 81.4546667,13.3333333 C81.4546667,6.00066667 75.3451111,0 67.8786667,0 C60.4122222,0 54.3031111,6.00066667 54.3031111,13.3333333 C54.3031111,20.6662222 60.4122222,26.6666667 67.8786667,26.6666667 Z M31.6768889,26.6666667 C39.1433333,26.6666667 45.2524444,20.6662222 45.2524444,13.3333333 C45.2524444,6.00066667 39.1433333,0 31.6768889,0 C24.2104444,0 18.1008889,6.00066667 18.1008889,13.3333333 C18.1008889,20.6662222 24.2104444,26.6666667 31.6768889,26.6666667 Z M31.6768889,36.4444444 C21.0417778,36.4444444 0,41.5551111 0,52 L0,64 L64,64 L64,52 C64,41.5551111 42.3113333,36.4444444 31.6768889,36.4444444 Z M67.8786667,38.8895556 C66.522,38.8895556 65.5842222,38.8895556 64,39.1111111 C69.2057778,42.8893333 71.1111111,45.3333333 71.1111111,52 L71.1111111,64 L99.5555556,64 L99.5555556,52 C99.5555556,41.5551111 78.5137778,38.8895556 67.8786667,38.8895556 Z" id="Shape"></path>
                </g>
            </g>
        </g>
    </g>
</svg>