<?xml version="1.0" encoding="UTF-8"?>
<svg width="128px" height="128px" viewBox="0 0 128 128" version="1.1" xmlns="http://www.w3.org/2000/svg" xmlns:xlink="http://www.w3.org/1999/xlink">
    <!-- Generator: sketchtool 52.2 (67145) - http://www.bohemiancoding.com/sketch -->
    <title>4E9DFBDB-CF24-4D70-9BCF-E62308525435</title>
    <desc>Created with sketchtool.</desc>
    <g id="desktop" stroke="none" stroke-width="1" fill="none" fill-rule="evenodd">
        <g id="profile_asset" transform="translate(-1011.000000, -477.000000)" fill="#FFFFFF" fill-rule="nonzero">
            <path d="M1075,477 C1039.64615,477 1011,505.646154 1011,541 C1011,576.353846 1039.64615,605 1075,605 C1110.35385,605 1139,576.353846 1139,541 C1139,505.646154 1110.35385,477 1075,477 Z M1091.21538,564.169231 L1075,547.953846 L1058.78462,564.169231 C1056.87692,566.076923 1053.73846,566.076923 1051.83077,564.169231 C1050.87692,563.215385 1050.38462,561.953846 1050.38462,560.692308 C1050.38462,559.430769 1050.87692,558.169231 1051.83077,557.215385 L1068.04615,541 L1051.83077,524.784615 C1050.87692,523.830769 1050.38462,522.569231 1050.38462,521.307692 C1050.38462,520.046154 1050.87692,518.784615 1051.83077,517.830769 C1053.73846,515.923077 1056.87692,515.923077 1058.78462,517.830769 L1075,534.046154 L1091.21538,517.830769 C1093.12308,515.923077 1096.26154,515.923077 1098.16923,517.830769 C1100.07692,519.738462 1100.07692,522.876923 1098.16923,524.784615 L1081.95385,541 L1098.16923,557.215385 C1100.07692,559.123077 1100.07692,562.261538 1098.16923,564.169231 C1096.26154,566.107692 1093.12308,566.107692 1091.21538,564.169231 Z" id="icon_close"></path>
        </g>
    </g>
</svg>