<?xml version="1.0" encoding="UTF-8"?>
<svg width="128px" height="128px" viewBox="0 0 128 128" version="1.1" xmlns="http://www.w3.org/2000/svg" xmlns:xlink="http://www.w3.org/1999/xlink">
    <!-- Generator: sketchtool 52.2 (67145) - http://www.bohemiancoding.com/sketch -->
    <title>D8DBC4A8-D080-4216-AC6A-88F04900C3DB</title>
    <desc>Created with sketchtool.</desc>
    <g id="desktop" stroke="none" stroke-width="1" fill="none" fill-rule="evenodd">
        <g id="profile_asset" transform="translate(-833.000000, -726.000000)" fill="#FFFFFF" fill-rule="nonzero">
            <g id="_ionicons_svg_md-person-add" transform="translate(833.000000, 726.000000)">
                <path d="M72,64 C80.8008333,64 88,56.7998333 88,48 C88,39.2001667 80.8008333,32 72,32 C63.1991667,32 56,39.2001667 56,48 C56,56.7998333 63.1991667,64 72,64 Z M72,72 C61.4003333,72 40,77.4003333 40,88 L40,96 L104,96 L104,88 C104,77.4003333 82.5996667,72 72,72 Z M40,58.6666667 L40,48 L34.6666667,48 L34.6666667,58.6666667 L24,58.6666667 L24,64 L34.6666667,64 L34.6666667,74.6666667 L40,74.6666667 L40,64 L50.6666667,64 L50.6666667,58.6666667 L40,58.6666667 Z" id="Shape"></path>
            </g>
        </g>
    </g>
</svg>