<?xml version="1.0" encoding="UTF-8"?>
<svg width="66px" height="77px" viewBox="0 0 66 77" version="1.1" xmlns="http://www.w3.org/2000/svg" xmlns:xlink="http://www.w3.org/1999/xlink">
    <!-- Generator: sketchtool 52.2 (67145) - http://www.bohemiancoding.com/sketch -->
    <title>A5D94597-F179-46BE-9406-DEEC2DACC5C2</title>
    <desc>Created with sketchtool.</desc>
    <g id="desktop" stroke="none" stroke-width="1" fill="none" fill-rule="evenodd">
        <g id="profile_asset" transform="translate(-177.000000, -205.000000)">
            <g id="img_wins_L" transform="translate(177.000000, 205.000000)">
                <polygon id="Rectangle" fill="#FFD702" fill-rule="nonzero" points="0.36328125 25.8068729 36.7013737 0.567532758 57.512184 38.6919172 21.0234429 76.8040553"></polygon>
                <path d="M25.0864707,39.7474944 C25.0864707,39.7474944 25.0864707,38.1590252 25.1220872,36.0298006 C24.053594,35.9960034 23.1631831,36.0298006 23.1631831,36.0298006 L23.2700324,39.3419278 C23.2700324,39.3419278 22.2727721,39.206739 19.8508543,39.2405362 C19.8508543,39.2405362 19.8508543,37.9224447 19.8864707,36.097395 L17.713868,36.1311922 C17.713868,36.1311922 17.8207173,35.1848702 17.6782516,32.9542539 C17.6782516,32.9542539 18.5330461,32.9880511 19.8864707,32.9880511 C19.8864707,31.8051485 19.8864707,30.8250292 19.8508543,29.4055461 L17.8563337,29.4393433 C17.8563337,29.4393433 17.8919502,28.5944129 17.8207173,26.262405 C17.8207173,26.262405 18.9248269,26.2962022 19.8152379,26.2962022 L19.744005,23.153061 C19.744005,23.153061 20.9905803,23.1868582 23.1275666,23.1192638 C23.1275666,23.1192638 23.0919502,24.707733 23.0919502,26.2962022 L25.0508543,26.262405 C25.0508543,25.1132996 25.0152379,23.9641942 24.9796214,22.7812916 C24.9796214,22.7812916 26.1549639,22.8488861 28.3987995,22.7474944 C28.3987995,22.7474944 28.3631831,24.403558 28.3631831,26.1948105 L30.5714022,26.1272161 C30.5714022,26.1272161 30.4645529,27.0059437 30.5001694,29.23656 L28.3631831,29.23656 L28.3987995,32.9542539 L30.6782516,32.8866594 C30.6782516,32.8866594 30.6070187,33.6977926 30.6426351,36.0298006 C30.6426351,36.0298006 29.6097584,35.9960034 28.4344159,35.9960034 L28.5412653,39.7474944 C28.5412653,39.7474944 27.544005,39.6799 25.0864707,39.7474944 Z M23.7843604,28.9198557 C23.7843604,30.27214 23.7843604,31.2954902 23.8194481,32.8670639 C25.0475183,32.9036121 25.7843604,32.8670639 25.7843604,32.8670639 C25.7843604,31.5513278 25.7843604,30.4548811 25.7492726,28.8833075 C25.1527814,28.8833075 24.5212025,28.8833075 23.7843604,28.9198557 Z M35.3229767,46.6133033 C35.4260302,37.1800565 35.3573279,31.2113839 35.3229767,28.9474047 C33.4336638,29.9764862 32.6435874,30.5253296 32.6435874,30.5253296 C31.7848088,27.7468097 31.2008393,26.1002793 31.2008393,26.1002793 C34.7046561,24.21363 37.4527477,22.635705 37.4527477,22.635705 C39.2046561,22.875824 39.9947325,23.0473376 39.9947325,23.0473376 C39.9947325,35.1218935 40.2008393,46.5790005 40.2008393,46.5790005 C37.1435874,46.6819087 35.3229767,46.6133033 35.3229767,46.6133033 Z" id="#1" fill="#31313C" transform="translate(28.939545, 34.635705) rotate(-14.000000) translate(-28.939545, -34.635705) "></path>
                <polygon id="Rectangle" fill="#FFD702" fill-rule="nonzero" points="41.4836102 45.7320398 57.7948109 38.126002 49.1367564 58.7106262 65.6241089 53.9434893 62.8684253 63.6237513 61.5268587 57.6171078 42.7371086 64.6158728"></polygon>
            </g>
        </g>
    </g>
</svg>