<?xml version="1.0" encoding="UTF-8"?>
<svg width="128px" height="128px" viewBox="0 0 128 128" version="1.1" xmlns="http://www.w3.org/2000/svg" xmlns:xlink="http://www.w3.org/1999/xlink">
    <!-- Generator: sketchtool 52.2 (67145) - http://www.bohemiancoding.com/sketch -->
    <title>1BFDC6FE-E5B9-4769-9621-65B930D5CC5C</title>
    <desc>Created with sketchtool.</desc>
    <g id="desktop" stroke="none" stroke-width="1" fill="none" fill-rule="evenodd">
        <g id="profile_asset" transform="translate(-833.000000, -258.000000)" fill="#FFFFFF" fill-rule="nonzero">
            <g id="Group" transform="translate(833.000000, 258.000000)">
                <path d="M123.142857,44.6984127 L81.1142857,44.6984127 L68.3428571,6.58412698 C67.7142857,4.72698413 65.9714286,3.55555556 64,3.55555556 C62.0285714,3.55555556 60.2857143,4.72698413 59.6571429,6.58412698 L46.8857143,44.6984127 L4.57142857,44.6984127 C2.05714286,44.6984127 0,46.7555556 0,49.2698413 C0,49.5269841 0.0285714286,49.8126984 0.0857142857,50.0412698 C0.142857143,51.0412698 0.6,52.1555556 2,53.2698413 L36.5428571,77.6126984 L23.2857143,116.155556 C22.6285714,118.012698 23.2857143,120.098413 24.8571429,121.298413 C25.6857143,121.898413 26.4571429,122.412698 27.4285714,122.412698 C28.3714286,122.412698 29.4857143,121.926984 30.2857143,121.384127 L64,97.3555556 L97.7142857,121.384127 C98.5142857,121.955556 99.6285714,122.412698 100.571429,122.412698 C101.542857,122.412698 102.314286,121.926984 103.114286,121.298413 C104.714286,120.098413 105.342857,118.04127 104.685714,116.155556 L91.4285714,77.6126984 L125.685714,53.0412698 L126.514286,52.3269841 C127.257143,51.5269841 128,50.4412698 128,49.2698413 C128,46.7555556 125.657143,44.6984127 123.142857,44.6984127 Z" id="Path"></path>
            </g>
        </g>
    </g>
</svg>