<?xml version="1.0" encoding="utf-8"?>
<!-- Generator: Adobe Illustrator 22.1.0, SVG Export Plug-In . SVG Version: 6.00 Build 0)  -->
<svg version="1.1" id="레이어_1" xmlns="http://www.w3.org/2000/svg" xmlns:xlink="http://www.w3.org/1999/xlink" x="0px"
y="0px" viewBox="0 0 92 127" style="enable-background:new 0 0 92 127;" xml:space="preserve">
<style type="text/css">
.st0{fill:#ED7C0D;}
</style>
<title>88655A82-0BAE-40F1-BDF5-D1B840F5BC62</title>
<desc>Created with sketchtool.</desc>
<g id="Group-8_3_" transform="translate(164.000000, 1972.000000)">
<g id="Triangle_2_">
<path class="st0" d="M-76-1956l-26,48l26-27.9V-1956z"/>
</g>
</g>
<g>
<path class="st0" d="M40.5,53c7.3,0.1,14,2.5,19.5,6.4l2.9-5.3C56.3,49.6,48.5,47,40,47c-1.2,0-2.3,0.1-3.4,0.2L40.5,53z"/>
<path class="st0" d="M70.3,60.9l-4.1,4.4C71.1,71.2,74,78.8,74,87c0,18.8-15.2,34-34,34S6,105.8,6,87c0-15,9.7-27.7,23.2-32.2
L29,48.6C12.3,53.4,0,68.8,0,87c0,22.1,17.9,40,40,40c22.1,0,40-17.9,40-40C80,77.1,76.3,68,70.3,60.9z"/>
</g>
<g id="Group-8_1_" transform="translate(164.000000, 1972.000000)">
<g id="Triangle_3_">
<path class="st0" d="M-131.1-1923l1,28.1l13.1-6.8L-131.1-1923z"/>
</g>
</g>
</svg>