<?xml version="1.0" encoding="UTF-8"?>
<svg width="64px" height="64px" viewBox="0 0 64 64" version="1.1" xmlns="http://www.w3.org/2000/svg" xmlns:xlink="http://www.w3.org/1999/xlink">
    <!-- Generator: sketchtool 52.2 (67145) - http://www.bohemiancoding.com/sketch -->
    <title>49A1107F-0FDB-41ED-89E8-1D67E6A60180</title>
    <desc>Created with sketchtool.</desc>
    <g id="desktop" stroke="none" stroke-width="1" fill="none" fill-rule="evenodd">
        <g id="index_black_asset" transform="translate(-1170.000000, -1391.000000)" fill="#FFFFFF" fill-rule="nonzero">
            <g id="_ionicons_svg_ios-eye" class="svg__view" transform="translate(1170.000000, 1391.000000)">
                <path d="M31.9733115,16 C42.6059066,16 50.6609028,23.7550171 56.4827208,30.8100828 C57.0493481,31.4878135 57.0160171,32.4655234 56.4271691,33.1099231 C50.7164545,39.3650443 42.683679,47.9977782 31.9733115,47.9977782 C21.12962,47.9977782 14.7745058,41.1426986 7.56389533,33.1765851 C6.95282665,32.4988544 6.96393698,31.4878135 7.57500567,30.8100828 C15.9966431,21.6218319 23.0405985,16 31.9733115,16 Z M32.4621665,41.9870845 C37.5951434,41.7537673 41.7504104,37.5985003 41.9837276,32.4655234 C42.2614861,26.5881537 37.417378,21.7440456 31.528898,22.0106938 C26.395921,22.2440109 22.240654,26.3992779 22.0073369,31.5322548 C21.7295784,37.4096245 26.5736865,42.2537326 32.4621665,41.9870845 Z M31.9955322,26.7770295 C31.9955322,29.6546074 34.2731519,31.9988891 37.0729574,31.9988891 C37.7951295,31.9988891 38.4728602,31.8433443 39.0950393,31.5655859 C39.0950393,31.7100203 39.1061496,31.8544547 39.1061496,31.9988891 C39.1061496,36.0986044 35.617503,39.3983753 31.4511256,39.0872858 C27.9735893,38.8206377 25.1737837,36.0208321 24.9071355,32.5432957 C24.596046,28.3769184 27.8958169,24.8882717 31.9955322,24.8882717 C32.117746,24.8882717 32.2288494,24.8993821 32.3399528,24.8993821 C32.117746,25.4771197 31.9955322,26.1104091 31.9955322,26.7770295 Z" id="Combined-Shape"></path>
            </g>
        </g>
    </g>
</svg>