<?xml version="1.0" encoding="UTF-8"?>
<svg width="24px" height="24px" viewBox="0 0 24 24" version="1.1" xmlns="http://www.w3.org/2000/svg" xmlns:xlink="http://www.w3.org/1999/xlink">
    <!-- Generator: sketchtool 52.5 (67469) - http://www.bohemiancoding.com/sketch -->
    <title>91E66B3C-5ABD-4DCC-8500-C356F825648E</title>
    <desc>Created with sketchtool.</desc>

    <g id="desktop" stroke="none" stroke-width="1" fill="none" fill-rule="evenodd">
        <g id="profile_black" transform="translate(-1878.000000, -1345.000000)">
            <g id="Group-9" transform="translate(1866.000000, 1333.000000)">
                <g id="Group" transform="translate(24.000000, 24.000000) scale(-1, 1) translate(-24.000000, -24.000000) translate(12.000000, 12.000000)">
                    <g id="Group-7" transform="translate(0.000000, 0.208696)">
                        <g id="Group-3" transform="translate(0.000000, 6.176398)">
                            <path d="M4.86413326,11.9095358 C3.70545728,11.9095358 2.29439642,10.5009496 2.29439642,9.3443527 L2.29439642,2.29029094e-05 L1.74373853,2.29029094e-05 C0.785823232,2.29029094e-05 -1.14720395e-05,0.784447551 -1.14720395e-05,1.74058676 L-1.14720395e-05,17.4062341 L3.35556007,14.0853122 L15.6937385,14.0853122 C16.6516538,14.0853122 17.4374885,13.2779274 17.4374885,12.3160625 L17.4374885,11.9095358 L4.86413326,11.9095358 Z" id="Fill-1" fill="#FFFFFF"></path>
                        </g>
                        <g id="Group-6" transform="translate(3.750000, 0.000000)">
                            <path d="M18.1858191,-5.77943671e-06 L2.02062598,-5.77943671e-06 C0.909037362,-5.77943671e-06 -2.31593025e-05,0.907365783 -2.31593025e-05,2.01701763 L-2.31593025e-05,15.084324 C-2.31593025e-05,16.1939759 0.909037362,17.1071269 2.02062598,17.1071269 L15.8119906,17.1071269 L20.2064683,20.1702283 L20.2064683,2.01701763 C20.2064683,0.907365783 19.2974656,-5.77943671e-06 18.1858191,-5.77943671e-06" id="Fill-4" fill="#FFFFFF"></path>
                        </g>
                    </g>
                </g>
            </g>
        </g>
    </g>
</svg>