<?xml version="1.0" encoding="UTF-8"?>
<svg width="68px" height="68px" viewBox="0 0 68 68" version="1.1" xmlns="http://www.w3.org/2000/svg" xmlns:xlink="http://www.w3.org/1999/xlink">
    <!-- Generator: sketchtool 52.2 (67145) - http://www.bohemiancoding.com/sketch -->
    <title>54D1E0EC-86E1-42C3-AAE5-DED01246D739</title>
    <desc>Created with sketchtool.</desc>
    <g id="desktop" stroke="none" stroke-width="1" fill="none" fill-rule="evenodd">
        <g id="index_black_asset" transform="translate(-298.000000, -1337.000000)">
            <g id="btn_movie_play_L" transform="translate(298.000000, 1337.000000)">
                <path d="M23.8373425,52 C23.5202172,52 23.2027244,51.9192052 22.9186713,51.7572533 C22.3501975,51.4337118 22,50.8355404 22,50.1884574 L22,18.8114521 C22,18.164369 22.3501975,17.5661976 22.9186713,17.2426561 C23.487145,16.9191146 24.18754,16.9191146 24.7560138,17.2426561 L52.3161513,32.9313399 C52.884625,33.2548815 53.2348225,33.8530528 53.2348225,34.5001359 C53.2348225,35.1472189 52.884625,35.7453903 52.3161513,36.0689318 L43.0897522,41.3209562 C42.2104,41.8216666 41.0874163,41.5245736 40.5799423,40.6579316 C40.0724683,39.7912896 40.373425,38.6837124 41.2524097,38.1833643 L47.722795,34.5001359 L25.674685,21.9494062 L25.674685,47.0508655 L31.5115547,43.728134 C32.3901718,43.2281483 33.514258,43.524879 34.0213645,44.3911586 C34.5288385,45.2578006 34.2278818,46.3653778 33.3488972,46.8657259 L24.7560138,51.7572533 C24.4719606,51.9192052 24.1544678,52 23.8373425,52" id="Fill-1" fill="#FFFFFF"></path>
            </g>
        </g>
    </g>
</svg>