<?xml version="1.0" encoding="UTF-8"?>
<svg width="18px" height="18px" viewBox="0 0 18 18" version="1.1" xmlns="http://www.w3.org/2000/svg" xmlns:xlink="http://www.w3.org/1999/xlink">
    <!-- Generator: sketchtool 52.2 (67145) - http://www.bohemiancoding.com/sketch -->
    <title>B72D8CD5-51BC-4EB7-A6B0-3CD0E8A7B930</title>
    <desc>Created with sketchtool.</desc>
    <g id="desktop" stroke="none" stroke-width="1" fill="none" fill-rule="evenodd">
        <g id="profile_white" transform="translate(-1248.000000, -192.000000)" fill="#31313C">
            <g id="profile_header" transform="translate(250.000000, 176.000000)">
                <g id="sns" transform="translate(998.000000, 16.000000)">
                    <g id="_ionicons_svg_md-share">
                        <path d="M14.5454024,12.7239671 C13.8658494,12.7239671 13.2314447,12.9495388 12.7783953,13.4007247 L6.30021647,9.65587765 C6.34557647,9.43022118 6.39093647,9.24958588 6.39093647,9.02401412 C6.39093647,8.79835765 6.34557647,8.61772235 6.30021647,8.39215059 L12.6881412,4.69262118 C13.1862965,5.14380706 13.8207012,5.41435765 14.5454024,5.41435765 C16.0402494,5.41435765 17.2635294,4.19603294 17.2635294,2.70715765 C17.2635294,1.21836706 16.0402494,0 14.5454024,0 C13.0504706,0 11.8272329,1.21836706 11.8272329,2.7072 C11.8272329,2.93281412 11.8723388,3.11349176 11.9179529,3.33906353 L5.53024,7.03859294 C5.03187294,6.58736471 4.39768,6.31685647 3.67280941,6.31685647 C2.17792,6.31685647 1,7.53518118 1,9.02405647 C1,10.5128894 2.22302588,11.7312565 3.71812706,11.7312565 C4.44299765,11.7312565 5.07719059,11.4606635 5.57555765,11.0094776 L12.0085882,14.7543671 C11.9630165,14.9345788 11.9179106,15.1152565 11.9179106,15.3408282 C11.9179106,16.7848094 13.0955765,17.9576894 14.54536,17.9576894 C15.9950588,17.9576894 17.1727671,16.7848094 17.1727671,15.3408282 C17.1728094,13.8968471 15.9951435,12.7239671 14.5454024,12.7239671 Z" id="Path"></path>
                    </g>
                </g>
            </g>
        </g>
    </g>
</svg>