<?xml version="1.0" encoding="UTF-8"?>
<svg width="16px" height="16px" viewBox="0 0 16 16" version="1.1" xmlns="http://www.w3.org/2000/svg" xmlns:xlink="http://www.w3.org/1999/xlink">
    <!-- Generator: sketchtool 52.5 (67469) - http://www.bohemiancoding.com/sketch -->
    <title>774C1E13-73ED-4E64-861E-C1B14E963EFA</title>
    <desc>Created with sketchtool.</desc>

    <g id="desktop" stroke="none" stroke-width="1" fill="none">
        <g id="profile_black" transform="translate(-1156.000000, -334.000000)">
            <g id="Group" transform="translate(250.000000, 301.000000)">
                <g id="##leaderboard" transform="translate(682.000000, 0.000000)">
                    <g id="_ionicons_svg_logo-twitter" transform="translate(224.000000, 33.000000)">
                        <g id="Group-3">
                            <path d="M8,11.7692308 C7.58846154,11.7692308 7.26538462,11.4576538 7.26538462,11.0615385 C7.26538462,10.6653846 7.58846154,10.3538077 8,10.3538077 C8.41153846,10.3538077 8.73461538,10.6653846 8.73461538,11.0615385 C8.73461538,11.4576538 8.41153846,11.7692308 8,11.7692308 M8.66153846,4.21538462 L8.54230769,8.64226923 C8.53461538,8.95765385 8.31538462,9.21153846 8,9.21153846 C7.68461538,9.21153846 7.46538462,8.95765385 7.45769231,8.64226923 L7.33846154,4.21538462 C7.33076923,3.84615385 7.62692308,3.53846154 8,3.53846154 C8.36923077,3.53846154 8.66923077,3.84226923 8.66153846,4.21538462 M8,0 C3.58076923,0 0,3.58076923 0,8 C0,12.4191923 3.58076923,16 8,16 C12.4192308,16 16,12.4191923 16,8 C16,3.58076923 12.4192308,0 8,0" id="Fill-1" fill="#777777"></path>
                        </g>
                    </g>
                </g>
            </g>
        </g>
    </g>
</svg>