<?xml version="1.0" encoding="UTF-8"?>
<svg width="128px" height="128px" viewBox="0 0 128 128" version="1.1" xmlns="http://www.w3.org/2000/svg" xmlns:xlink="http://www.w3.org/1999/xlink">
    <!-- Generator: sketchtool 52.2 (67145) - http://www.bohemiancoding.com/sketch -->
    <title>C1B67B0A-7971-48A1-A975-C7ED9144B9C7</title>
    <desc>Created with sketchtool.</desc>
    <g id="desktop" stroke="none" stroke-width="1" fill="none" fill-rule="evenodd">
        <g id="profile_asset" transform="translate(-833.000000, -477.000000)" fill="#FFFFFF" fill-rule="nonzero">
            <path d="M929.407052,477 L864.535818,477 C847.139701,477 833,491.457143 833,509.171429 L833,572.828571 C833,590.542857 847.139701,605 864.535818,605 L929.435617,605 C946.831734,605 961,590.542857 961,572.828571 L961,509.171429 C960.971435,491.457143 946.831734,477 929.407052,477 Z M873.848025,539.571429 L873.848025,539.771429 C873.848025,542.885714 871.248605,545.6 868.16358,545.6 L861.507922,545.6 C858.422897,545.6 855.823477,542.885714 855.823477,539.771429 L855.823477,510.171429 C856.109127,507.085714 858.451462,504.4 861.507922,504.4 L868.16358,504.4 C871.27717,504.4 873.848025,507.2 873.848025,510.342857 L873.848025,539.571429 Z M908.697389,581.685714 C908.697389,584.942857 906.155099,586.714286 902.955813,586.714286 L891.015622,586.714286 C887.816336,586.714286 885.274046,584.4 885.274046,581.114286 L885.274046,572.742857 C885.274046,566.085714 890.44432,560.657143 896.985717,560.657143 C903.527114,560.657143 908.697389,566.085714 908.697389,572.742857 L908.697389,581.685714 Z M938.119393,539.571429 L938.119393,539.771429 C938.119393,542.885714 935.519973,545.6 932.434948,545.6 L925.49364,545.6 C922.408614,545.6 919.809194,542.885714 919.809194,539.771429 L919.809194,510.171429 C920.094845,507.085714 922.437179,504.4 925.49364,504.4 L932.434948,504.4 C935.519973,504.4 938.119393,507.2 938.119393,510.342857 L938.119393,539.571429 Z" id="icon_noti"></path>
        </g>
    </g>
</svg>