<?xml version="1.0" encoding="utf-8"?>
<!-- Generator: Adobe Illustrator 16.0.3, SVG Export Plug-In . SVG Version: 6.00 Build 0)  -->
<!DOCTYPE svg PUBLIC "-//W3C//DTD SVG 1.1//EN" "http://www.w3.org/Graphics/SVG/1.1/DTD/svg11.dtd">
<svg version="1.1" id="Layer_1" xmlns="http://www.w3.org/2000/svg" xmlns:xlink="http://www.w3.org/1999/xlink" x="0px" y="0px"
	 width="18px" height="18px" viewBox="0 0 18 18" enable-background="new 0 0 18 18" xml:space="preserve">
<title>B0F18FD7-3F3B-412D-8E02-C7588ECAC446</title>
<desc>Created with sketchtool.</desc>
<g id="desktop">
	<g id="index_black_asset" transform="translate(-573.000000, -1560.000000)">
		<g id="img_num_7" transform="translate(573.000000, 1554.000000)">
			<g enable-background="new    ">
				<path fill="#FFFFFF" d="M4.281,18.858c-0.6-0.02-1.1,0-1.1,0l0.06,1.961c0,0-0.56-0.08-1.92-0.061c0,0,0-0.78,0.02-1.86
					l-1.22,0.021c0,0,0.06-0.561-0.02-1.881c0,0,0.48,0.021,1.24,0.021c0-0.7,0-1.28-0.02-2.121L0.2,14.958c0,0,0.02-0.5-0.02-1.881
					c0,0,0.62,0.021,1.12,0.021l-0.04-1.86c0,0,0.7,0.02,1.9-0.021c0,0-0.02,0.94-0.02,1.881l1.1-0.021c0-0.68-0.02-1.36-0.04-2.061
					c0,0,0.66,0.04,1.92-0.02c0,0-0.02,0.98-0.02,2.04l1.241-0.04c0,0-0.06,0.521-0.04,1.841H6.101l0.02,2.2l1.28-0.04
					c0,0-0.04,0.48-0.02,1.86c0,0-0.58-0.02-1.24-0.02l0.06,2.221c0,0-0.56-0.04-1.94,0C4.261,21.06,4.261,20.119,4.281,18.858z
					 M3.161,17.059c0.7,0.02,1.12,0,1.12,0c0-0.721,0-1.32-0.02-2.181c-0.34,0-0.7,0-1.12,0.02
					C3.141,15.638,3.141,16.198,3.161,17.059z"/>
			</g>
			<g enable-background="new    ">
				<path fill="#FFFFFF" d="M14.752,9.535c-2.783,0.023-4.632,0.071-4.632,0.071c0.071-1.896,0.071-3.24,0.071-3.24
					c6.506-0.071,7.657-0.144,7.657-0.144c-0.024,2.712,0.048,3.648,0.048,3.648c-2.305,3.408-2.977,7.681-2.688,13.585
					c-2.4-0.096-3.385-0.096-3.385-0.096C11.488,17.144,12.688,12.199,14.752,9.535z"/>
			</g>
		</g>
	</g>
</g>
</svg>
