<?xml version="1.0" encoding="utf-8"?>
<!-- Generator: Adobe Illustrator 16.0.3, SVG Export Plug-In . SVG Version: 6.00 Build 0)  -->
<!DOCTYPE svg PUBLIC "-//W3C//DTD SVG 1.1//EN" "http://www.w3.org/Graphics/SVG/1.1/DTD/svg11.dtd">
<svg version="1.1" id="Layer_1" xmlns="http://www.w3.org/2000/svg" xmlns:xlink="http://www.w3.org/1999/xlink" x="0px" y="0px"
	 width="20px" height="18px" viewBox="0 0 20 18" enable-background="new 0 0 20 18" xml:space="preserve">
<title>314BD2DC-3B99-491F-9719-0B14DEA949DB</title>
<desc>Created with sketchtool.</desc>
<g id="desktop">
	<g id="index_black_asset" transform="translate(-481.000000, -1560.000000)">
		<g id="img_num_5" transform="translate(481.000000, 1554.000000)">
			<g enable-background="new    ">
				<path fill="#FFFFFF" d="M4.281,18.858c-0.6-0.02-1.1,0-1.1,0l0.06,1.961c0,0-0.56-0.08-1.92-0.061c0,0,0-0.78,0.02-1.86
					l-1.22,0.021c0,0,0.06-0.561-0.02-1.881c0,0,0.48,0.021,1.24,0.021c0-0.7,0-1.28-0.02-2.121L0.2,14.958c0,0,0.02-0.5-0.02-1.881
					c0,0,0.62,0.021,1.12,0.021l-0.04-1.86c0,0,0.7,0.02,1.9-0.021c0,0-0.02,0.94-0.02,1.881l1.1-0.021c0-0.68-0.02-1.36-0.04-2.061
					c0,0,0.66,0.04,1.92-0.02c0,0-0.02,0.98-0.02,2.04l1.241-0.04c0,0-0.06,0.521-0.04,1.841H6.101l0.02,2.2l1.28-0.04
					c0,0-0.04,0.48-0.02,1.86c0,0-0.58-0.02-1.24-0.02l0.06,2.221c0,0-0.56-0.04-1.94,0C4.261,21.06,4.261,20.119,4.281,18.858z
					 M3.161,17.059c0.7,0.02,1.12,0,1.12,0c0-0.721,0-1.32-0.02-2.181c-0.34,0-0.7,0-1.12,0.02
					C3.141,15.638,3.141,16.198,3.161,17.059z"/>
			</g>
			<g enable-background="new    ">
				<path fill="#FFFFFF" d="M10.432,17.191c1.824,0.145,3.289,0.168,3.289,0.168c-0.072,2.641,0.24,3.528,1.031,3.528
					c0.625,0,1.033-0.72,1.033-3.433c0-2.304-0.313-3.432-0.961-3.432c-0.624,0-0.912,0.888-1.056,2.376c0,0-1.561-0.12-3.265-0.312
					c0,0,0.145-4.369,0.217-9.673c0,0,3.168,0,7.943-0.169c0,0-0.047,0.625-0.047,3.049c0,0-1.705-0.024-4.824,0.048
					c-0.024,0.792-0.072,1.944-0.072,3.528c0.552-0.888,1.271-1.344,2.496-1.344c2.304,0,2.952,2.448,2.977,5.712
					c0,4.297-1.513,6.169-4.441,6.169C11.176,23.408,10.096,21.08,10.432,17.191z"/>
			</g>
		</g>
	</g>
</g>
</svg>
