<?xml version="1.0" encoding="UTF-8"?>
<svg width="27px" height="19px" viewBox="0 0 27 19" version="1.1" xmlns="http://www.w3.org/2000/svg" xmlns:xlink="http://www.w3.org/1999/xlink">
    <!-- Generator: sketchtool 52.5 (67469) - http://www.bohemiancoding.com/sketch -->
    <title>C94FF88F-BB74-49CD-ABEE-58C318E3DCD8</title>
    <desc>Created with sketchtool.</desc>
    <g id="desktop" stroke="none" stroke-width="1" fill="none" fill-rule="evenodd">
        <g id="index_black_asset" transform="translate(-865.000000, -1259.000000)" fill="#FFFFFF" fill-rule="nonzero">
            <g id="img_num_13" transform="translate(865.000000, 1259.000000)">
                <path d="M4.26,16.06 C4.26,16.06 4.26,15.12 4.28,13.86 C3.68,13.84 3.18,13.86 3.18,13.86 L3.24,15.82 C3.24,15.82 2.68,15.74 1.32,15.76 C1.32,15.76 1.32,14.98 1.34,13.9 L0.12,13.92 C0.12,13.92 0.18,13.36 0.1,12.04 C0.1,12.04 0.58,12.06 1.34,12.06 C1.34,11.36 1.34,10.78 1.32,9.94 L0.2,9.96 C0.2,9.96 0.22,9.46 0.18,8.08 C0.18,8.08 0.8,8.1 1.3,8.1 L1.26,6.24 C1.26,6.24 1.96,6.26 3.16,6.22 C3.16,6.22 3.14,7.16 3.14,8.1 L4.24,8.08 C4.24,7.4 4.22,6.72 4.2,6.02 C4.2,6.02 4.86,6.06 6.12,6 C6.12,6 6.1,6.98 6.1,8.04 L7.34,8 C7.34,8 7.28,8.52 7.3,9.84 L6.1,9.84 L6.12,12.04 L7.4,12 C7.4,12 7.36,12.48 7.38,13.86 C7.38,13.86 6.8,13.84 6.14,13.84 L6.2,16.06 C6.2,16.06 5.64,16.02 4.26,16.06 Z M3.14,9.9 C3.14,10.64 3.14,11.2 3.16,12.06 C3.86,12.08 4.28,12.06 4.28,12.06 C4.28,11.34 4.28,10.74 4.26,9.88 C3.92,9.88 3.56,9.88 3.14,9.9 Z" id="#"></path>
                <path d="M12.88,18.072 C12.952,11.472 12.904,7.296 12.88,5.712 C11.56,6.432 11.008,6.816 11.008,6.816 C10.408,4.872 10,3.72 10,3.72 C12.448,2.4 14.368,1.296 14.368,1.296 C15.592,1.464 16.144,1.584 16.144,1.584 C16.144,10.032 16.288,18.048 16.288,18.048 C14.152,18.12 12.88,18.072 12.88,18.072 Z M22.288,18.528 C18.592,18.528 17.488,16.032 17.944,12 C17.944,12 18.976,12.096 21.184,12.216 C20.944,14.76 21.328,15.816 22.192,15.816 C22.84,15.816 23.32,15.288 23.32,13.608 C23.32,12.432 23.032,11.688 22.6,11.352 C22.192,11.016 21.592,10.896 20.464,10.968 C20.464,10.968 20.464,10.128 20.368,8.424 C21.472,8.472 22.192,8.352 22.576,8.04 C22.984,7.728 23.248,6.984 23.248,5.952 C23.248,4.392 22.936,3.6 22.264,3.6 C21.352,3.6 21.064,4.848 21.256,7.224 C19.36,7.344 18.016,7.416 18.016,7.416 C17.56,2.808 19.192,0.912 22.552,0.912 C25.24,0.912 26.56,3.096 26.56,5.616 C26.56,7.512 25.84,8.856 24.544,9.48 C25.864,10.032 26.776,11.52 26.776,13.632 C26.776,16.896 24.784,18.528 22.288,18.528 Z" id="13"></path>
            </g>
        </g>
    </g>
</svg>