<?xml version="1.0" encoding="utf-8"?>
<!-- Generator: Adobe Illustrator 16.0.3, SVG Export Plug-In . SVG Version: 6.00 Build 0)  -->
<!DOCTYPE svg PUBLIC "-//W3C//DTD SVG 1.1//EN" "http://www.w3.org/Graphics/SVG/1.1/DTD/svg11.dtd">
<svg version="1.1" id="Layer_1" xmlns="http://www.w3.org/2000/svg" xmlns:xlink="http://www.w3.org/1999/xlink" x="0px" y="0px"
	 width="19px" height="18px" viewBox="0 0 19 18" enable-background="new 0 0 19 18" xml:space="preserve">
<title>931243A1-56A2-4D66-AE52-AEE52E907C8A</title>
<desc>Created with sketchtool.</desc>
<g id="desktop">
	<g id="index_black_asset" transform="translate(-345.000000, -1560.000000)">
		<g id="img_num_2" transform="translate(345.000000, 1554.000000)">
			<g enable-background="new    ">
				<path fill="#FFFFFF" d="M4.281,18.858c-0.6-0.02-1.1,0-1.1,0l0.06,1.961c0,0-0.56-0.08-1.92-0.061c0,0,0-0.78,0.02-1.86
					l-1.22,0.021c0,0,0.06-0.561-0.02-1.881c0,0,0.48,0.021,1.24,0.021c0-0.7,0-1.28-0.02-2.121L0.2,14.958c0,0,0.02-0.5-0.02-1.881
					c0,0,0.62,0.021,1.12,0.021l-0.04-1.86c0,0,0.7,0.02,1.9-0.021c0,0-0.02,0.94-0.02,1.881l1.1-0.021c0-0.68-0.02-1.36-0.04-2.061
					c0,0,0.66,0.04,1.92-0.02c0,0-0.02,0.98-0.02,2.04l1.241-0.04c0,0-0.06,0.521-0.04,1.841H6.101l0.02,2.2l1.28-0.04
					c0,0-0.04,0.48-0.02,1.86c0,0-0.58-0.02-1.24-0.02l0.06,2.221c0,0-0.56-0.04-1.94,0C4.261,21.06,4.261,20.119,4.281,18.858z
					 M3.161,17.059c0.7,0.02,1.12,0,1.12,0c0-0.721,0-1.32-0.02-2.181c-0.34,0-0.7,0-1.12,0.02
					C3.141,15.638,3.141,16.198,3.161,17.059z"/>
			</g>
			<g enable-background="new    ">
				<path fill="#FFFFFF" d="M10.48,22.904c-0.097-2.112-0.121-3.673-0.121-3.673c2.809-2.352,5.064-5.04,5.064-8.425
					c0-1.319-0.336-2.016-0.887-2.016c-0.889,0-1.225,1.176-0.961,4.512c0,0-0.96,0-3.145,0.097
					C9.928,8.526,11.248,6.03,14.633,6.03c2.808,0,4.08,1.849,4.08,4.873c0,3.432-1.801,6.696-4.633,8.929
					c3.024,0.023,4.297-0.024,4.297-0.024c0,2.473,0.023,3.217,0.023,3.217C13.816,22.904,10.48,22.904,10.48,22.904z"/>
			</g>
		</g>
	</g>
</g>
</svg>
