<?xml version="1.0" encoding="utf-8"?>
<!-- Generator: Adobe Illustrator 16.0.3, SVG Export Plug-In . SVG Version: 6.00 Build 0)  -->
<!DOCTYPE svg PUBLIC "-//W3C//DTD SVG 1.1//EN" "http://www.w3.org/Graphics/SVG/1.1/DTD/svg11.dtd">
<svg version="1.1" id="Layer_1" xmlns="http://www.w3.org/2000/svg" xmlns:xlink="http://www.w3.org/1999/xlink" x="0px" y="0px"
	 width="20px" height="18px" viewBox="0 0 20 18" enable-background="new 0 0 20 18" xml:space="preserve">
<title>0F061020-6E41-46A9-86D3-00242252B88C</title>
<desc>Created with sketchtool.</desc>
<g id="desktop">
	<g id="index_black_asset" transform="translate(-527.000000, -1560.000000)">
		<g id="img_num_6" transform="translate(527.000000, 1554.000000)">
			<g enable-background="new    ">
				<path fill="#FFFFFF" d="M4.281,18.858c-0.6-0.02-1.1,0-1.1,0l0.06,1.961c0,0-0.56-0.08-1.92-0.061c0,0,0-0.78,0.02-1.86
					l-1.22,0.021c0,0,0.06-0.561-0.02-1.881c0,0,0.48,0.021,1.24,0.021c0-0.7,0-1.28-0.02-2.121L0.2,14.958c0,0,0.02-0.5-0.02-1.881
					c0,0,0.62,0.021,1.12,0.021l-0.04-1.86c0,0,0.7,0.02,1.9-0.021c0,0-0.02,0.94-0.02,1.881l1.1-0.021c0-0.68-0.02-1.36-0.04-2.061
					c0,0,0.66,0.04,1.92-0.02c0,0-0.02,0.98-0.02,2.04l1.241-0.04c0,0-0.06,0.521-0.04,1.841H6.101l0.02,2.2l1.28-0.04
					c0,0-0.04,0.48-0.02,1.86c0,0-0.58-0.02-1.24-0.02l0.06,2.221c0,0-0.56-0.04-1.94,0C4.261,21.06,4.261,20.119,4.281,18.858z
					 M3.161,17.059c0.7,0.02,1.12,0,1.12,0c0-0.721,0-1.32-0.02-2.181c-0.34,0-0.7,0-1.12,0.02
					C3.141,15.638,3.141,16.198,3.161,17.059z"/>
			</g>
			<g enable-background="new    ">
				<path fill="#FFFFFF" d="M10.384,14.839c0-5.208,0.864-8.856,4.704-8.856c3.121,0,4.152,2.256,3.961,5.904
					c-2.112-0.12-3.217-0.096-3.217-0.096c0.072-1.992-0.119-3.168-0.768-3.168c-0.792,0-1.176,1.224-1.2,5.28
					c0.601-0.769,1.345-1.2,2.208-1.2c2.473,0.024,3.265,2.208,3.265,4.872c0,4.249-1.872,5.881-4.32,5.881
					C11.633,23.456,10.384,20.695,10.384,14.839z M13.864,16.039c0.072,3.745,0.433,4.681,1.177,4.681
					c0.6,0,0.983-0.792,0.983-2.856c0.024-1.584-0.312-2.472-1.128-2.472C14.488,15.392,14.176,15.655,13.864,16.039z"/>
			</g>
		</g>
	</g>
</g>
</svg>
