<?xml version="1.0" encoding="utf-8"?>
<!-- Generator: Adobe Illustrator 16.0.3, SVG Export Plug-In . SVG Version: 6.00 Build 0)  -->
<!DOCTYPE svg PUBLIC "-//W3C//DTD SVG 1.1//EN" "http://www.w3.org/Graphics/SVG/1.1/DTD/svg11.dtd">
<svg version="1.1" id="Layer_1" xmlns="http://www.w3.org/2000/svg" xmlns:xlink="http://www.w3.org/1999/xlink" x="0px" y="0px"
	 width="20px" height="19px" viewBox="0 0 20 19" enable-background="new 0 0 20 19" xml:space="preserve">
<title>E7CCB825-A5A5-4B85-AB10-C3B37DE6C3CF</title>
<desc>Created with sketchtool.</desc>
<g id="desktop">
	<g id="index_black_asset" transform="translate(-618.000000, -1559.000000)">
		<g id="img_num_8" transform="translate(618.000000, 1554.000000)">
			<g enable-background="new    ">
				<path fill="#FFFFFF" d="M4.281,18.858c-0.6-0.02-1.1,0-1.1,0l0.06,1.961c0,0-0.56-0.08-1.92-0.061c0,0,0-0.78,0.02-1.86
					l-1.22,0.021c0,0,0.06-0.561-0.02-1.881c0,0,0.48,0.021,1.24,0.021c0-0.7,0-1.28-0.02-2.121L0.2,14.958c0,0,0.02-0.5-0.02-1.881
					c0,0,0.62,0.021,1.12,0.021l-0.04-1.86c0,0,0.7,0.02,1.9-0.021c0,0-0.02,0.94-0.02,1.881l1.1-0.021c0-0.68-0.02-1.36-0.04-2.061
					c0,0,0.66,0.04,1.92-0.02c0,0-0.02,0.98-0.02,2.04l1.241-0.04c0,0-0.06,0.521-0.04,1.841H6.101l0.02,2.2l1.28-0.04
					c0,0-0.04,0.48-0.02,1.86c0,0-0.58-0.02-1.24-0.02l0.06,2.221c0,0-0.56-0.04-1.94,0C4.261,21.06,4.261,20.119,4.281,18.858z
					 M3.161,17.059c0.7,0.02,1.12,0,1.12,0c0-0.721,0-1.32-0.02-2.181c-0.34,0-0.7,0-1.12,0.02
					C3.141,15.638,3.141,16.198,3.161,17.059z"/>
			</g>
			<g enable-background="new    ">
				<path fill="#FFFFFF" d="M10.144,18.896c0-1.704,0.72-3.168,2.329-4.128c-1.201-0.96-2.041-2.473-2.041-4.297
					c0-2.736,1.632-4.512,4.488-4.512c2.977,0,4.465,1.8,4.465,4.464c0,2.088-0.889,3.313-2.28,4.225
					c1.608,0.96,2.448,2.256,2.448,4.176c0.023,3.217-1.872,4.633-4.584,4.633C11.801,23.456,10.144,21.848,10.144,18.896z
					 M16.024,19.04c0-1.32-0.479-2.353-1.296-2.952c-0.721,0.575-1.152,1.655-1.152,2.735c0,1.297,0.432,2.089,1.248,2.089
					C15.568,20.912,16.024,20.24,16.024,19.04z M15.953,10.639c0-1.32-0.385-2.088-1.104-2.088c-0.769,0-1.128,0.768-1.128,1.992
					c0,1.2,0.432,2.185,1.224,2.832C15.496,12.823,15.953,11.863,15.953,10.639z"/>
			</g>
		</g>
	</g>
</g>
</svg>
