<?xml version="1.0" encoding="UTF-8"?>
<svg width="27px" height="18px" viewBox="0 0 27 18" version="1.1" xmlns="http://www.w3.org/2000/svg" xmlns:xlink="http://www.w3.org/1999/xlink">
    <!-- Generator: sketchtool 52.5 (67469) - http://www.bohemiancoding.com/sketch -->
    <title>B0C82F7A-E585-421D-B4E1-E502C1D230F0</title>
    <desc>Created with sketchtool.</desc>
    <g id="desktop" stroke="none" stroke-width="1" fill="none" fill-rule="evenodd">
        <g id="index_black_asset" transform="translate(-915.000000, -1300.000000)" fill="#FFFFFF" fill-rule="nonzero">
            <g id="img_num_14" transform="translate(915.000000, 1300.000000)">
                <path d="M4.26,15.06 C4.26,15.06 4.26,14.12 4.28,12.86 C3.68,12.84 3.18,12.86 3.18,12.86 L3.24,14.82 C3.24,14.82 2.68,14.74 1.32,14.76 C1.32,14.76 1.32,13.98 1.34,12.9 L0.12,12.92 C0.12,12.92 0.18,12.36 0.1,11.04 C0.1,11.04 0.58,11.06 1.34,11.06 C1.34,10.36 1.34,9.78 1.32,8.94 L0.2,8.96 C0.2,8.96 0.22,8.46 0.18,7.08 C0.18,7.08 0.8,7.1 1.3,7.1 L1.26,5.24 C1.26,5.24 1.96,5.26 3.16,5.22 C3.16,5.22 3.14,6.16 3.14,7.1 L4.24,7.08 C4.24,6.4 4.22,5.72 4.2,5.02 C4.2,5.02 4.86,5.06 6.12,5 C6.12,5 6.1,5.98 6.1,7.04 L7.34,7 C7.34,7 7.28,7.52 7.3,8.84 L6.1,8.84 L6.12,11.04 L7.4,11 C7.4,11 7.36,11.48 7.38,12.86 C7.38,12.86 6.8,12.84 6.14,12.84 L6.2,15.06 C6.2,15.06 5.64,15.02 4.26,15.06 Z M3.14,8.9 C3.14,9.64 3.14,10.2 3.16,11.06 C3.86,11.08 4.28,11.06 4.28,11.06 C4.28,10.34 4.28,9.74 4.26,8.88 C3.92,8.88 3.56,8.88 3.14,8.9 Z" id="#"></path>
                <path d="M12.88,17.072 C12.952,10.472 12.904,6.296 12.88,4.712 C11.56,5.432 11.008,5.816 11.008,5.816 C10.408,3.872 10,2.72 10,2.72 C12.448,1.4 14.368,0.296 14.368,0.296 C15.592,0.464 16.144,0.584 16.144,0.584 C16.144,9.032 16.288,17.048 16.288,17.048 C14.152,17.12 12.88,17.072 12.88,17.072 Z M22.36,17.408 C18.784,17.408 17.704,15.08 18.04,11.192 C19.864,11.336 21.328,11.36 21.328,11.36 C21.256,14 21.568,14.888 22.36,14.888 C22.984,14.888 23.392,14.168 23.392,11.456 C23.392,9.152 23.08,8.024 22.432,8.024 C21.808,8.024 21.52,8.912 21.376,10.4 C21.376,10.4 19.816,10.28 18.112,10.088 C18.112,10.088 18.256,5.72 18.328,0.416 C18.328,0.416 21.496,0.416 26.272,0.248 C26.272,0.248 26.224,0.872 26.224,3.296 C26.224,3.296 24.52,3.272 21.4,3.344 C21.376,4.136 21.328,5.288 21.328,6.872 C21.88,5.984 22.6,5.528 23.824,5.528 C26.128,5.528 26.776,7.976 26.8,11.24 C26.8,15.536 25.288,17.408 22.36,17.408 Z" id="15"></path>
            </g>
        </g>
    </g>
</svg>