<?xml version="1.0" encoding="utf-8"?>
<!-- Generator: Adobe Illustrator 16.0.3, SVG Export Plug-In . SVG Version: 6.00 Build 0)  -->
<!DOCTYPE svg PUBLIC "-//W3C//DTD SVG 1.1//EN" "http://www.w3.org/Graphics/SVG/1.1/DTD/svg11.dtd">
<svg version="1.1" id="Layer_1" xmlns="http://www.w3.org/2000/svg" xmlns:xlink="http://www.w3.org/1999/xlink" x="0px" y="0px"
	 width="20px" height="19px" viewBox="0 0 20 19" enable-background="new 0 0 20 19" xml:space="preserve">
<title>CF750FED-C9A1-4915-974F-B328BC9CF574</title>
<desc>Created with sketchtool.</desc>
<g id="desktop">
	<g id="index_black_asset" transform="translate(-390.000000, -1559.000000)">
		<g id="img_num_3" transform="translate(390.000000, 1554.000000)">
			<g enable-background="new    ">
				<path fill="#FFFFFF" d="M4.281,18.858c-0.6-0.02-1.1,0-1.1,0l0.06,1.961c0,0-0.56-0.08-1.92-0.061c0,0,0-0.78,0.02-1.86
					l-1.22,0.021c0,0,0.06-0.561-0.02-1.881c0,0,0.48,0.021,1.24,0.021c0-0.7,0-1.28-0.02-2.121L0.2,14.958c0,0,0.02-0.5-0.02-1.881
					c0,0,0.62,0.021,1.12,0.021l-0.04-1.86c0,0,0.7,0.02,1.9-0.021c0,0-0.02,0.94-0.02,1.881l1.1-0.021c0-0.68-0.02-1.36-0.04-2.061
					c0,0,0.66,0.04,1.92-0.02c0,0-0.02,0.98-0.02,2.04l1.241-0.04c0,0-0.06,0.521-0.04,1.841H6.101l0.02,2.2l1.28-0.04
					c0,0-0.04,0.48-0.02,1.86c0,0-0.58-0.02-1.24-0.02l0.06,2.221c0,0-0.56-0.04-1.94,0C4.261,21.06,4.261,20.119,4.281,18.858z
					 M3.161,17.059c0.7,0.02,1.12,0,1.12,0c0-0.721,0-1.32-0.02-2.181c-0.34,0-0.7,0-1.12,0.02
					C3.141,15.638,3.141,16.198,3.161,17.059z"/>
			</g>
			<g enable-background="new    ">
				<path fill="#FFFFFF" d="M10.336,16.999c0,0,1.032,0.097,3.24,0.217c-0.24,2.544,0.145,3.6,1.008,3.6
					c0.648,0,1.129-0.527,1.129-2.208c0-1.176-0.289-1.92-0.721-2.256c-0.408-0.336-1.008-0.456-2.136-0.384
					c0,0,0-0.841-0.097-2.545c1.104,0.048,1.824-0.071,2.209-0.384c0.408-0.312,0.672-1.056,0.672-2.088
					c0-1.561-0.313-2.353-0.984-2.353c-0.912,0-1.2,1.248-1.008,3.624c-1.896,0.12-3.24,0.192-3.24,0.192
					C9.952,7.807,11.584,5.91,14.944,5.91c2.688,0,4.009,2.185,4.009,4.705c0,1.896-0.721,3.24-2.017,3.864
					c1.32,0.552,2.232,2.04,2.232,4.152c0,3.264-1.992,4.896-4.489,4.896C10.984,23.528,9.88,21.032,10.336,16.999z"/>
			</g>
		</g>
	</g>
</g>
</svg>
