<?xml version="1.0" encoding="utf-8"?>
<!-- Generator: Adobe Illustrator 16.0.3, SVG Export Plug-In . SVG Version: 6.00 Build 0)  -->
<!DOCTYPE svg PUBLIC "-//W3C//DTD SVG 1.1//EN" "http://www.w3.org/Graphics/SVG/1.1/DTD/svg11.dtd">
<svg version="1.1" id="Layer_1" xmlns="http://www.w3.org/2000/svg" xmlns:xlink="http://www.w3.org/1999/xlink" x="0px" y="0px"
	 width="123px" height="67px" viewBox="0 0 123 67" enable-background="new 0 0 123 67" xml:space="preserve">
<title>95F4F5ED-30E8-4F6E-9C66-B55D9277D2DD</title>
<desc>Created with sketchtool.</desc>
<g id="desktop">
	<g id="profile_asset" transform="translate(-162.000000, -333.000000)">
		<g id="img_winrate" transform="translate(158.000000, 333.000000)">
			<g enable-background="new    ">
				<path fill="#31313C" d="M19.878,32.653c0,0,2.494-0.371,8.097-1.355c0,0,0.113,1.173,0.452,3.159c0,0-0.976,0.132-2.422,0.361
					c0.372,2.346,1.006,6.354,2.235,13.496c0,0-1.095,0.149-3.221,0.535c0,0-0.816-5.314-2.191-13.528l-2.438,0.409
					C20.391,35.73,20.278,34.874,19.878,32.653z"/>
				<path fill="#31313C" d="M29.435,39.596c-0.755-4.765-0.455-8.699,3.22-9.281c3.722-0.59,5.151,2.756,5.951,7.806
					c0.992,6.573-0.151,8.869-3.232,9.357C31.959,48.018,30.359,45.282,29.435,39.596z M35.077,38.557
					c-0.717-4.527-1.255-5.778-2.014-5.658c-0.83,0.131-0.822,1.709-0.146,5.976c0.796,5.026,1.275,6.214,2.105,6.083
					C35.733,44.845,35.896,43.725,35.077,38.557z"/>
				<path fill="#31313C" d="M38.339,29.851c0.677-0.181,1.332-0.333,1.926-0.426c4.574-0.725,6.766,1.14,7.423,5.289
					c0.612,3.863-0.982,6.377-4.188,7.006l0.703,3.825c0,0-1.382,0.17-3.314,0.55C40.888,46.094,39.995,39.843,38.339,29.851z
					 M43.043,39.143c1.167-0.307,1.777-1.205,1.364-3.813c-0.375-2.371-1.211-3.502-2.503-3.225
					C42.246,34.263,42.436,35.617,43.043,39.143z"/>
			</g>
		</g>
	</g>
</g>
</svg>
