<?xml version="1.0" encoding="UTF-8"?>
<svg width="449px" height="239px" viewBox="0 0 449 239" version="1.1" xmlns="http://www.w3.org/2000/svg" xmlns:xlink="http://www.w3.org/1999/xlink">
    <!-- Generator: sketchtool 52.3 (67297) - http://www.bohemiancoding.com/sketch -->
    <title>44C136A0-F66A-4BFB-BA59-2E17B3AF1E52</title>
    <desc>Created with sketchtool.</desc>
    <g id="desktop" stroke="none" stroke-width="1" fill="none" fill-rule="evenodd">
        <g id="error_page_white" transform="translate(-420.000000, -237.000000)" fill="#31313C">
            <path d="M467.06,421.08 C431.44,421.08 420,393.52 420,351.92 C420,313.18 435.08,286.14 467.58,286.14 C501.38,286.14 514.9,313.96 514.9,352.96 C514.9,400.8 498,421.08 467.06,421.08 Z M467.58,397.94 C475.38,397.94 478.5,385.98 478.5,353.22 C478.5,323.06 475.38,310.06 467.58,310.06 C459.26,310.06 456.4,323.32 456.4,351.92 C456.4,387.54 459.26,397.94 467.58,397.94 Z M590.941522,292.049028 C619.535035,300.790942 629.276349,328.510228 616.35352,370.778898 C604.875007,408.323422 581.015186,427.672969 551.675756,418.703005 C522.336326,409.733041 513.299751,380.597937 525.158347,341.810216 C537.473043,301.53066 562.59665,283.383131 590.941522,292.049028 Z M583.526729,314.523165 C576.067552,312.242666 568.557721,324.356312 559.891824,352.701185 C550.845843,382.289255 551.880011,394.024385 558.84191,396.152851 C565.057891,398.053268 572.498046,389.724637 581.391993,360.633846 C590.97009,329.305302 591.234546,316.879681 583.526729,314.523165 Z M641.1771,475.817898 C632.001872,394.691372 619.313739,297.755119 619.313739,297.755119 C634.054959,296.207077 647.152749,294.074965 647.152749,294.074965 C647.809008,303.686631 648.347671,308.073685 648.918019,312.718801 C652.04678,297.665295 660.970501,287.139308 675.163911,285.396576 C699.937863,282.354717 715.973306,308.414736 720.979698,349.188532 C726.588125,394.865506 714.255044,416.026259 693.610084,418.561142 C681.997294,419.987013 672.331403,415.934784 666.771966,406.925152 C673.66613,454.539878 677.016031,471.155478 677.016031,471.155478 C651.599211,473.228461 641.1771,475.817898 641.1771,475.817898 Z M677.823555,396.661801 C685.049291,395.774592 687.45809,385.524632 683.529022,353.524944 C680.016447,322.78388 674.819277,310.324384 667.851603,311.179907 C659.335557,312.225546 658.302979,327.283626 661.756756,355.412384 C665.749196,387.928196 669.823633,397.644068 677.823555,396.661801 Z M775.16,421.86 C746.3,421.86 729.66,406.26 731.48,371.68 C731.48,371.68 742.66,371.94 764.5,373.24 C763.46,388.84 766.32,396.38 775.16,396.38 C780.1,396.38 784.52,393 784.52,384.42 C784.52,378.18 782.18,372.46 762.42,364.4 C741.1,355.82 731.48,343.34 731.48,322.54 C731.48,302 746.3,285.1 774.12,285.1 C803.24,285.1 816.76,305.64 814.94,336.84 C814.94,336.84 801.16,336.06 783.48,336.06 C784.78,321.24 782.44,311.36 773.86,311.36 C767.1,311.36 763.72,316.82 763.72,323.06 C763.72,332.16 768.66,337.62 785.3,344.9 C810.52,356.08 817.02,367.78 817.02,384.42 C817.02,411.46 797.78,421.86 775.16,421.86 Z M846.14,421.08 C831.84,421.08 822.48,412.24 822.48,397.42 C822.48,383.9 831.06,374.28 845.88,374.28 C861.74,374.28 868.76,385.72 868.76,397.94 C868.76,412.24 859.4,421.08 846.14,421.08 Z M831.06,364.14 C831.06,364.14 829.24,300.7 825.86,237 C825.86,237 841.2,237.52 864.6,237 C864.6,237 862.52,294.72 860.96,364.14 C860.96,364.14 848.74,363.62 831.06,364.14 Z" id="img_oops"></path>
        </g>
    </g>
</svg>